<?xml version="1.0" encoding="UTF-8" standalone="no"?>
<!-- Created with Inkscape (http://www.inkscape.org/) -->

<svg
   width="148.09265mm"
   height="148.21524mm"
   viewBox="0 0 148.09265 148.21524"
   version="1.1"
   id="svg5"
   xml:space="preserve"
   inkscape:version="1.2.2 (b0a8486541, 2022-12-01)"
   sodipodi:docname="icon.svg"
   inkscape:export-filename="export/Linux/flatpak/512x512.png"
   inkscape:export-xdpi="87.815292"
   inkscape:export-ydpi="87.815292"
   xmlns:inkscape="http://www.inkscape.org/namespaces/inkscape"
   xmlns:sodipodi="http://sodipodi.sourceforge.net/DTD/sodipodi-0.dtd"
   xmlns:xlink="http://www.w3.org/1999/xlink"
   xmlns="http://www.w3.org/2000/svg"
   xmlns:svg="http://www.w3.org/2000/svg"><sodipodi:namedview
     id="namedview7"
     pagecolor="#ffffff"
     bordercolor="#000000"
     borderopacity="0.25"
     inkscape:showpageshadow="2"
     inkscape:pageopacity="0.0"
     inkscape:pagecheckerboard="0"
     inkscape:deskcolor="#d1d1d1"
     inkscape:document-units="mm"
     showgrid="false"
     inkscape:zoom="0.7367354"
     inkscape:cx="52.257568"
     inkscape:cy="234.14105"
     inkscape:window-width="2560"
     inkscape:window-height="1371"
     inkscape:window-x="0"
     inkscape:window-y="0"
     inkscape:window-maximized="1"
     inkscape:current-layer="layer1" /><defs
     id="defs2"><linearGradient
       inkscape:collect="always"
       id="linearGradient3555"><stop
         style="stop-color:#ffffff;stop-opacity:1;"
         offset="0"
         id="stop3551" /><stop
         style="stop-color:#d6e1f5;stop-opacity:1;"
         offset="1"
         id="stop3553" /></linearGradient><linearGradient
       inkscape:collect="always"
       xlink:href="#linearGradient3555"
       id="linearGradient3557"
       x1="30.884491"
       y1="99.299278"
       x2="164.12149"
       y2="99.299278"
       gradientUnits="userSpaceOnUse"
       gradientTransform="matrix(1.0008581,0,0,1.0017163,-0.0265032,-0.28476114)" /></defs><g
     inkscape:groupmode="layer"
     id="layer2"
     inkscape:label="back"
     style="display:none"
     transform="translate(-29.807102,-20.934694)"
     sodipodi:insensitive="true"><rect
       style="fill:#b85b7d;fill-opacity:1;stroke:none;stroke-width:3.8"
       id="rect1186"
       width="244.20799"
       height="196.44377"
       x="-12.929283"
       y="7.1825876"
       rx="7.8379016"
       sodipodi:insensitive="true" /></g><g
     inkscape:groupmode="layer"
     id="layer5"
     inkscape:label="dupot_back"
     transform="translate(-29.807102,-20.934694)"
     sodipodi:insensitive="true"><rect
       style="display:inline;fill:#ee5f00;fill-opacity:1;stroke:none;stroke-width:4.33416"
       id="rect8349"
       width="83.151207"
       height="83.151207"
       x="94.74855"
       y="20.934694"
       rx="8.9396687"
       inkscape:label="orange_corner" /><g
       inkscape:groupmode="layer"
       id="layer3"
       inkscape:label="white_circle"
       transform="matrix(1.1105121,0,0,1.1105121,-4.4904991,-15.103763)"
       style="display:inline"><ellipse
         style="fill:url(#linearGradient3557);fill-opacity:1;stroke:none;stroke-width:3.80489"
         id="path6631"
         cx="97.560158"
         cy="99.184944"
         rx="66.675667"
         ry="66.732834" /></g><g
       inkscape:groupmode="layer"
       id="layer4"
       inkscape:label="d"
       style="display:inline"><text
         xml:space="preserve"
         style="font-size:25.4px;font-family:'Nimbus Mono PS';-inkscape-font-specification:'Nimbus Mono PS';fill:#ee5f00;fill-opacity:1;stroke:none;stroke-width:3.8"
         x="157.95244"
         y="45.709709"
         id="text10454"><tspan
           sodipodi:role="line"
           id="tspan10452"
           style="font-style:normal;font-variant:normal;font-weight:bold;font-stretch:normal;font-size:25.4px;font-family:Ubuntu;-inkscape-font-specification:'Ubuntu Bold';fill:#ffffff;stroke-width:3.8"
           x="157.95244"
           y="45.709709">d</tspan></text></g></g><g
     inkscape:groupmode="layer"
     id="layer1"
     inkscape:label="dupot_back 1"><g
       id="g30118"
       transform="translate(4.7625002)"><path
         style="display:inline;fill:#000000;stroke:#252525;stroke-width:2.665;stroke-dasharray:none;stroke-opacity:1"
         d="m 33.035911,124.64303 v -3.43958 h 1.719792 1.719792 v -3.57188 -3.57187 h -1.719792 -1.719792 v 1.85208 1.85209 h -8.73125 -8.73125 v -1.85209 -1.85208 H 13.85362 12.133828 v -3.43958 -3.43959 h 1.719792 1.719791 v 1.71979 1.7198 h 3.439584 3.439583 V 91.437827 72.255536 h 1.852083 1.852084 v -1.719792 -1.719792 h 5.159375 5.159375 V 67.096161 65.376369 H 33.035911 29.596328 V 63.656577 61.936786 H 22.58487 15.573411 v -1.719792 -1.719792 h 1.719792 1.719792 v -1.719791 -1.719792 h -1.719792 -1.719792 v -1.852083 -1.852084 h 1.719792 1.719792 V 40.902411 30.451369 h 1.719791 1.719792 v -1.719792 -1.719791 h 1.852083 1.852084 v -3.439584 -3.439583 h 1.719791 1.719792 v 1.719792 1.719791 h 1.719792 1.719791 v 1.719792 1.719792 h 1.719792 1.719792 v 1.719791 1.719792 h 1.719791 1.719792 v 7.011458 7.011459 h 1.719792 1.719791 v 1.719791 1.719792 h 7.011459 7.011458 v -3.439583 -3.439584 h 1.719792 1.719791 v -5.291666 -5.291667 h 1.719792 1.719792 v -1.719792 -1.719791 h 1.852083 1.852083 v -3.439584 -3.439583 h 1.719792 1.719792 v 3.439583 3.439584 h 1.719791 1.719792 v 10.451041 10.451042 h -1.719792 -1.719791 v 1.719792 1.719791 h 3.439583 3.439583 v 1.852084 1.852083 H 76.55987 74.840078 v 1.719792 1.719791 h 1.719792 1.719791 v 1.719792 1.719792 h -5.159375 -5.159375 v 1.719791 1.719792 h 1.719792 1.719792 v 1.719792 1.719791 h 1.719791 1.719792 v -1.719791 -1.719792 h 3.571875 3.571875 v 3.042708 3.042709 h 11.773958 11.773954 v 1.719791 1.719792 h 1.71979 1.71979 v 1.719792 1.719791 h 1.7198 1.71979 v -5.159375 -5.159375 h 3.30729 3.30729 v 3.439584 3.439583 h 6.74688 6.74687 v 1.719792 1.719791 h 1.71979 1.71979 v 6.746875 6.746875 h -1.71979 -1.71979 v 8.334368 8.33438 h -8.33437 -8.33438 v -3.30729 -3.3073 h -1.71979 -1.71979 v -3.439575 -3.439583 h -3.43959 -3.43958 v 3.439583 3.439575 h -1.5875 -1.5875 v 1.7198 1.71979 h -1.71979 -1.71979 v 1.5875 1.5875 h -3.439582 -3.439583 v 1.71979 1.71979 h 1.719791 1.719792 v 3.43959 3.43958 h -1.719792 -1.719791 v -1.71979 -1.71979 h -1.5875 -1.5875 v -1.7198 -1.71979 h -1.719792 -1.719792 v -1.71979 -1.71979 H 73.649453 61.875495 v 3.43958 3.43959 h -0.529167 -0.529167 v 2.91041 2.91042 h 3.571875 3.571875 v 3.43958 3.43959 h -5.291666 -5.291667 v -1.7198 -1.71979 h -1.719792 -1.719791 v -3.43958 -3.43958 h -1.719792 -1.719792 v -3.57188 -3.57187 H 48.77862 47.058828 v 5.29166 5.29167 h 1.719792 1.719791 v 3.43958 3.43959 h -8.73125 -8.73125 z m 25.4,-16.80104 v -4.10104 h -0.529166 -0.529167 v -0.92604 -0.92605 h -1.190625 -1.190625 v -7.805199 -7.805209 h -0.529167 -0.529166 v 1.719792 1.719792 h -1.719792 -1.719792 v 3.571875 3.571875 h 1.719792 1.719792 v 3.439574 3.43959 h 1.719791 1.719792 v 4.10104 4.10104 h 0.529167 0.529166 z m -21.960416,-7.54063 v -3.439574 h 1.719791 1.719792 v -3.571875 -3.571875 h -1.719792 -1.719791 v -1.719792 -1.719792 h -1.719792 -1.719792 v 8.73125 8.731248 h 1.719792 1.719792 z m 3.439583,-36.644783 v -1.719791 h -1.719792 -1.719791 v 1.719791 1.719792 h 1.719791 1.719792 z"
         id="path30115" /></g><g
       id="g30077"
       transform="translate(4.9114639,2.7496822)"><path
         style="fill:#fefefe;stroke-width:0.264583"
         d="m 64.107781,89.085019 v -13.49375 h 0.396875 0.396875 v -1.190625 -1.190625 h 1.455208 1.455208 v 1.719792 1.719792 h 3.439584 3.439583 v -1.719792 -1.719792 h 1.719792 1.719791 v -0.529166 -0.529167 h 12.038542 12.038541 v 1.719792 1.719791 h 1.5875 1.5875 v 6.746875 6.746875 h -1.5875 -1.5875 v 3.307292 3.307292 h -1.71979 -1.719793 v 1.719791 1.719792 h -1.719791 -1.719792 v 1.719794 1.71979 H 79.718197 64.107781 Z m 54.768749,-1.719791 v -1.719792 h -3.30729 -3.30729 v -3.439583 -3.439584 h 1.71979 1.71979 v -1.5875 -1.5875 h 6.74688 6.74687 v 1.5875 1.5875 h 1.5875 1.5875 v 3.439584 3.439583 h -1.5875 -1.5875 v 1.719792 1.719791 h -5.15937 -5.15938 z M 39.766114,55.747519 v -3.439583 h 1.719792 1.719791 v 1.719792 1.719791 h 1.852084 1.852083 v -1.719791 -1.719792 h 1.719792 1.719791 v 3.439583 3.439584 h -5.291666 -5.291667 z m 24.341667,1.719792 v -1.719792 h -1.719792 -1.719792 v -1.719791 -1.719792 h 1.719792 1.719792 v 1.719792 1.719791 h 1.852083 1.852083 v -1.719791 -1.719792 h 1.719792 1.719792 v 3.439583 3.439584 h -3.571875 -3.571875 z m -41.804167,-17.4625 v -5.159375 h 1.852083 1.852084 v -1.719792 -1.719791 h 3.439583 3.439583 v 1.719791 1.719792 h 1.719792 1.719792 v 3.439583 3.439584 h -1.719792 -1.719792 v 1.719791 1.719792 h -5.291666 -5.291667 z m 41.804167,-1.719792 v -3.439583 h 1.852083 1.852083 v -1.719792 -1.719791 h 1.719792 1.719792 v 5.159375 5.159375 h -3.571875 -3.571875 z"
         id="path30113" /><path
         style="fill:#e0e1fb;stroke-width:0.264583"
         d="m 118.87653,99.139186 v -3.439583 h -1.5875 -1.5875 v -1.719792 -1.719792 h 5.02708 5.02709 v 1.719792 1.719792 h 1.71979 1.71979 v 3.439583 3.439584 h -5.15937 -5.15938 z"
         id="path30111" /><path
         style="fill:#e0e0e0;stroke-width:0.264583"
         d="m 113.9266,65.34065 1.79694,-0.09281 1.64264,0.09365 1.64264,0.09365 -3.43958,-7.94e-4 -3.43958,-7.94e-4 1.79694,-0.09281 z"
         id="path30109" /><path
         style="fill:#c9c9c9;stroke-width:0.264583"
         d="m 61.726531,105.09231 v -0.66146 h 1.190625 1.190625 v -0.92604 -0.92604 h 15.610416 15.610417 v -1.71979 -1.719794 h 1.719792 1.719791 v -1.719792 -1.719791 h 1.719793 1.71979 v -3.307292 -3.307292 h 1.5875 1.5875 v -6.746875 -6.746875 h -1.5875 -1.5875 V 73.871478 72.151686 H 90.169239 78.130697 v -1.322917 -1.322916 h 1.852084 1.852083 v -0.396875 -0.396875 h 11.773958 11.773958 v 1.719791 1.719792 h 1.71979 1.71979 v 1.719792 1.719791 h 1.7198 1.71979 v -5.027083 -5.027083 h 3.30729 3.30729 v 3.307291 3.307292 h 6.74688 6.74687 v 1.719792 1.719791 h 1.71979 1.71979 v 6.746875 6.746875 h -1.71979 -1.71979 v 8.334375 8.334376 h -8.33437 -8.33438 v -3.30729 -3.307294 h -1.71979 -1.71979 v -3.439583 -3.439584 h -3.43959 -3.43958 v 3.439584 3.439583 h -1.5875 -1.5875 v 1.719794 1.71979 h -1.71979 -1.719793 v 1.5875 1.5875 H 80.247364 61.726531 Z m 67.468749,-7.672916 v -5.159375 h -6.74687 -6.74688 v 1.719792 1.719792 h 1.5875 1.5875 v 3.439583 3.439584 h 5.15938 5.15937 z m 0,-10.054166 v -1.719792 h 1.5875 1.5875 v -3.439583 -3.439584 h -1.5875 -1.5875 v -1.5875 -1.5875 h -6.74687 -6.74688 v 1.5875 1.5875 h -1.71979 -1.71979 v 3.439584 3.439583 h 3.30729 3.30729 v 1.719792 1.719791 h 5.15938 5.15937 z M 58.286947,101.78502 v -0.79375 h 1.190625 1.190625 v 0.79375 0.79375 H 59.477572 58.286947 Z M 54.847364,91.333978 v -7.805209 h 1.190625 1.190625 v 7.805209 7.805208 h -1.190625 -1.190625 z m 9.260417,-16.933334 v -1.190625 h 0.396875 0.396875 v 1.190625 1.190625 h -0.396875 -0.396875 z"
         id="path30107" /><path
         style="fill:#b7b7b8;stroke-width:0.264583"
         d="m 81.671288,65.669394 0.0011,-3.175 0.09421,1.664015 0.09421,1.664015 -0.09516,1.510985 -0.09516,1.510985 0.0011,-3.175 z"
         id="path30105" /><path
         style="display:inline;fill:#adadad;stroke-width:0.264583"
         d="m 92.610735,115.88156 0.853993,-0.10627 0.99809,0.10414 0.998088,0.10413 -1.852084,0.002 -1.852083,0.002 0.853996,-0.10628 z"
         id="path30103" /><path
         style="display:inline;fill:#f3a56b;stroke-width:0.264583"
         d="m 22.303614,100.99127 v -3.439584 h 3.571875 3.571875 v 3.439584 3.43958 h -3.571875 -3.571875 z m 34.925,-7.011459 v -3.571875 h 1.719792 1.719791 v 3.571875 3.571875 h -1.719791 -1.719792 z"
         id="path30101" /><path
         style="fill:#909092;stroke-width:0.264583"
         d="m 81.59117,69.08693 0.02087,-0.507119 0.138965,0.347266 0.138964,0.347265 -0.159851,0.159854 -0.159853,0.15985 0.0209,-0.507116 z"
         id="path30099" /><path
         style="fill:#f48634;stroke-width:0.264583"
         d="m 29.447364,100.99127 v -3.439584 h 1.719792 1.719791 v 3.439584 3.43958 h -1.719791 -1.719792 z m 6.879167,-5.159376 v -1.719791 h 1.719791 1.719792 v -1.852084 -1.852083 h 1.719792 1.719791 v -1.719792 -1.719791 h 1.852084 1.852083 v -1.719792 -1.719792 h 1.719792 1.719791 v -1.719791 -1.719792 h 1.719792 1.719792 v -3.439583 -3.439584 h 1.719791 1.719792 v 3.439584 3.439583 h -1.719792 -1.719791 v 1.719792 1.719791 h -1.719792 -1.719792 v 1.719792 1.719792 h -1.719791 -1.719792 v 1.719791 1.719792 h -1.852083 -1.852084 v 1.852083 1.852084 h -1.719791 -1.719792 v 1.719791 1.719792 h -1.719792 -1.719791 z m 24.341666,-1.852083 v -3.571875 h 1.719792 1.719792 v 3.571875 3.571875 h -1.719792 -1.719792 z"
         id="path30097" /><path
         style="fill:#848484;stroke-width:0.264583"
         d="m 32.886947,121.89335 v -3.43958 h 1.719792 1.719792 v 3.43958 3.43959 h -1.719792 -1.719792 z m 6.879167,0 v -3.43958 h 1.719792 1.719791 v 3.43958 3.43959 h -1.719791 -1.719792 z m 7.14375,0 v -3.43958 h 1.719792 1.719791 v 3.43958 3.43959 h -1.719791 -1.719792 z m 6.879167,-1.71979 v -1.71979 h 1.719791 1.719792 v 1.71979 1.71979 h -1.719792 -1.719791 z m 6.879166,0 v -1.71979 h 1.719792 1.719792 v 1.71979 1.71979 H 62.387989 60.668197 Z M 22.303614,107.87044 v -3.43959 h 3.571875 3.571875 v 3.43959 3.43958 h -3.571875 -3.571875 z m 0,-24.341671 V 69.505853 h 1.852083 1.852084 v -1.719792 -1.719792 h 5.159375 5.159375 v -1.719791 -1.719792 h -3.439584 -3.439583 v -1.719792 -1.719791 h -7.011458 -7.011459 v -1.719792 -1.719792 h 1.719792 1.719792 v -1.719791 -1.719792 h -1.719792 -1.719792 v -1.852083 -1.852084 h 1.719792 1.719792 V 38.152728 27.701686 h 1.719791 1.719792 v -1.719792 -1.719791 h 1.852083 1.852084 v -3.439584 -3.439583 h 1.719791 1.719792 v 1.719792 1.719791 h 1.719792 1.719791 v 1.719792 1.719792 h 1.719792 1.719792 v 5.291666 5.291667 h -1.719792 -1.719792 v -1.719792 -1.719791 h -3.439583 -3.439583 v 1.719791 1.719792 h -1.852084 -1.852083 v 5.159375 5.159375 h 5.291667 5.291666 v 1.719792 1.719791 h 3.439584 3.439583 v 5.291667 5.291667 h 1.719792 1.719791 v 1.719791 1.719792 h 1.852084 1.852083 v -1.719792 -1.719791 h 1.719792 1.719791 v -3.439584 -3.439583 h 1.719792 1.719792 v -3.571875 -3.571875 h 1.719791 1.719792 v -3.439583 -3.439584 h 1.719792 1.719791 v -5.291666 -5.291667 h 1.719792 1.719792 v -1.719792 -1.719791 h 1.852083 1.852083 v -3.439584 -3.439583 h 1.719792 1.719792 v 7.011458 7.011459 h -1.719792 -1.719792 v 1.719791 1.719792 h -1.852083 -1.852083 v 5.159375 5.159375 h -3.439584 -3.439583 v 3.571875 3.571875 h 1.719792 1.719791 v 1.719792 1.719791 h 1.719792 1.719792 v 1.719792 1.719792 h 1.852083 1.852083 v 1.719791 1.719792 h 1.719792 1.719792 v 1.719792 1.719791 h 1.719791 1.719792 v 1.719792 1.719792 h 1.719792 1.719791 v 1.852083 1.852083 h -1.719791 -1.719792 v 1.719792 1.719792 h -3.439583 -3.439584 v -1.719792 -1.719792 h -3.571875 -3.571875 v -1.852083 -1.852083 h -1.719791 -1.719792 v -1.719792 -1.719792 h -1.719792 -1.719791 v -1.719791 -1.719792 h -3.439584 -3.439583 v 1.719792 1.719791 h 1.719792 1.719791 v 3.571875 3.571875 h 1.719792 1.719792 v 3.439584 3.439583 h -1.719792 -1.719792 v 1.719792 1.719791 h -1.719791 -1.719792 v -3.439583 -3.439583 h -1.852083 -1.852084 v 3.439583 3.439583 h -3.439583 -3.439583 v -3.439583 -3.439583 h -1.719792 -1.719792 v 1.719791 1.719792 h -1.719791 -1.719792 v 8.73125 8.73125 h -3.571875 -3.571875 z m 17.4625,-22.621875 v -1.719791 h -1.719792 -1.719791 v 1.719791 1.719792 h 1.719791 1.719792 z m 0,34.925 v -1.719791 h 1.719792 1.719791 v -1.852084 -1.852083 h -1.719791 -1.719792 v -1.719792 -1.719791 h 1.719792 1.719791 v 1.719791 1.719792 h 1.852084 1.852083 v -1.719792 -1.719791 h 1.719792 1.719791 v 3.571875 3.571875 h 1.719792 1.719792 v 1.719791 1.719792 h -7.011459 -7.011458 z"
         id="path30095" /><path
         style="fill:#69bd2f;stroke-width:0.264583"
         d="m 64.107781,54.027728 v -1.719792 h 1.852083 1.852083 v 1.719792 1.719791 h -1.852083 -1.852083 z"
         id="path30093" /><path
         style="fill:#636365;stroke-width:0.264583"
         d="m 36.326531,121.89335 v -3.43958 h 1.719791 1.719792 v 3.43958 3.43959 h -1.719792 -1.719791 z m 6.879166,0 v -3.43958 h 1.852084 1.852083 v 3.43958 3.43959 h -1.852083 -1.852084 z m 14.022917,0 v -3.43958 h 1.719792 1.719791 v 1.71979 1.71979 h 1.719792 1.719792 v -1.71979 -1.71979 h 1.852083 1.852083 v 3.43958 3.43959 h -5.291666 -5.291667 z m -27.78125,-14.02291 v -3.43959 h 1.719792 1.719791 v 3.43959 3.43958 h -1.719791 -1.719792 z m 31.220833,-5.15938 v -1.71979 h -1.719791 -1.719792 v -1.719792 -1.719792 h 3.439583 3.439584 v 3.439584 3.43958 H 62.387989 60.668197 Z M 29.447364,88.820436 v -8.73125 h 1.719792 1.719791 v -1.719792 -1.719791 h 1.719792 1.719792 v 3.439583 3.439583 h 3.439583 3.439583 v -3.439583 -3.439583 h 1.852084 1.852083 v 5.159375 5.159375 h -5.291667 -5.291666 v -1.719792 -1.719792 h -1.719792 -1.719792 v 7.011459 7.011458 h -1.719791 -1.719792 z m 27.78125,-1.852083 v -3.439584 h -1.719792 -1.719791 v 1.719792 1.719792 h -1.719792 -1.719792 v -1.719792 -1.719792 h 1.719792 1.719792 v -1.719791 -1.719792 h 1.719791 1.719792 v -3.439583 -3.439584 h -3.439583 -3.439584 v -3.571875 -3.571875 h -1.719791 -1.719792 v -1.719791 -1.719792 h -1.852083 -1.852084 v -1.719792 -1.719791 h 1.852084 1.852083 v 1.719791 1.719792 h 3.439583 3.439584 v 1.719792 1.719791 h 1.719791 1.719792 v 1.719792 1.719792 h 1.719792 1.719791 v 1.852083 1.852083 h 1.719792 1.719792 v 8.598959 8.598958 H 60.668197 57.228614 Z M 71.251531,55.747519 v -3.439583 h -1.719792 -1.719792 v -1.852083 -1.852084 h 5.159375 5.159375 v 1.852084 1.852083 h -1.719791 -1.719792 v 1.719792 1.719791 h 1.719792 1.719791 v 1.719792 1.719792 h -3.439583 -3.439583 z m 0,-21.034375 V 24.262103 h 1.719791 1.719792 v 10.451041 10.451042 h -1.719792 -1.719791 z m -34.925,0 v -7.011458 h 1.719791 1.719792 v 7.011458 7.011459 h -1.719792 -1.719791 z"
         id="path30091" /><path
         style="fill:#565656;stroke-width:0.264583"
         d="m 91.889031,114.22044 v -1.5875 h -1.5875 -1.5875 v -1.7198 -1.71979 h -1.719792 -1.719792 v -1.71979 -1.71979 h 3.307292 3.307292 v 1.71979 1.71979 h 1.719791 1.719792 v 3.30729 3.3073 h -1.719792 -1.719791 z m -31.220834,-2.24896 v -0.66146 h -1.719791 -1.719792 v -1.05833 -1.05834 h 0.529167 0.529166 v -3.30729 -3.30729 h 1.190625 1.190625 v 0.92604 0.92604 h 0.529167 0.529167 v 4.10104 4.10105 h -0.529167 -0.529167 z"
         id="path30089" /><path
         style="fill:#4f4f4f;stroke-width:0.264583"
         d="m 15.424447,113.1621 v -1.85208 h -1.719791 -1.719792 v -3.43958 -3.43959 h 1.719792 1.719791 v 1.71979 1.7198 h 3.439584 3.439583 v 1.71979 1.71979 h 5.291667 5.291666 v -5.15938 -5.15937 h 1.719792 1.719792 v 5.15937 5.15938 h -1.719792 -1.719792 v 1.85208 1.85209 h -8.73125 -8.73125 z"
         id="path30087" /><path
         style="fill:#090d7d;stroke-width:0.264583"
         d="M 36.326531,108.00273 V 97.551686 h 7.011458 7.011458 v 1.719792 1.719792 h -1.719791 -1.719792 v 8.73125 8.73125 h -5.291667 -5.291666 z"
         id="path30085" /><path
         style="fill:#00034c;stroke-width:0.264583"
         d="m 53.789031,116.73398 v -1.71979 h -1.719792 -1.719792 v -3.57188 -3.57187 h -1.719791 -1.719792 v -3.43959 -3.43958 h 1.719792 1.719791 v -1.719792 -1.719792 h 1.719792 1.719792 v 1.719792 1.719792 h 1.719791 1.719792 v 5.15937 5.15938 h 1.719792 1.719791 v 3.57187 3.57188 h -3.439583 -3.439583 z"
         id="path30083" /><path
         style="fill:#000006;stroke-width:0.264583"
         d="m 74.691114,66.066269 v -3.439583 h 3.439583 3.439584 v 3.439583 3.439584 H 78.130697 74.691114 Z M 43.205697,54.027728 v -1.719792 h -1.719791 -1.719792 v -1.852083 -1.852084 h -3.439583 -3.439584 v -3.439583 -3.439583 h 5.159375 5.159375 v 1.719791 1.719792 h 5.291667 5.291667 v 3.571875 3.571875 h -3.439584 -3.439583 v 1.719792 1.719791 h -1.852083 -1.852084 z m 14.022917,-5.291667 v -3.571875 h 3.439583 3.439584 v -1.719792 -1.719791 h 3.571875 3.571875 v 3.439583 3.439583 h -1.719792 -1.719792 v 1.852084 1.852083 h -5.291666 -5.291667 z"
         id="path30081" /><path
         style="display:inline;fill:#000000;stroke-width:0.264583"
         d="m 125.7557,93.979811 v -1.719792 h 1.71979 1.71979 v 1.719792 1.719792 h -1.71979 -1.71979 z"
         id="path30079" /></g></g></svg>
